<?xml version="1.0" encoding="UTF-8"?>
<svg width="55px" height="59px" viewBox="0 0 55 59" version="1.1" xmlns="http://www.w3.org/2000/svg" xmlns:xlink="http://www.w3.org/1999/xlink">
    <title>Howl logo 2026 (mono)</title>
    <defs>
        <path d="M-0.457663911,-6.24122975 L63.5423361,-6.24122975 L63.5423361,57.7587703 L49.6738285,43.8902173 C45.4646349,49.2830001 38.9033995,52.7504763 31.5322917,52.7504763 C18.8297424,52.7504763 8.53229167,42.4530255 8.53229167,29.7504763 C8.53229167,22.3798221 11.999341,15.8189406 17.3915549,11.6097167 L-0.457663911,-6.24122975 Z" id="path-1"></path>
        <path d="M35.8539397,38.3202759 L37.1963575,38.8862549 L41.3110672,40.6205399 L40.4623834,39.8385745 L34.3766462,34.2322996 C34.6373655,34.2297597 34.9052064,34.223979 35.1720051,34.2136439 C35.6728605,34.194375 36.1694605,34.1591656 36.6081324,34.0996949 C36.8917797,34.0611571 37.1514568,34.0128974 37.3716178,33.9519377 C37.3605881,33.9486971 37.3482556,33.9443178 37.3366179,33.9408143 C35.8094733,33.4513853 28.9723227,29.2909756 28.7092585,29.1307813 L29.3787738,28.9916952 L31.7122201,28.5309943 C31.7122201,28.5309943 31.7024931,28.526177 31.6845154,28.5173309 C31.2923075,28.3229782 26.7535164,26.0750904 24.7949952,25.1698919 C25.113295,24.9509276 26.2264326,24.1720277 27.7483663,22.9527468 C27.2616671,22.141703 24.9630471,20.9874107 22.9986201,19.0350372 C22.5361517,17.1336386 18.1166905,9.85543979 17.192709,9.7449066 C16.2687274,9.634461 15.8755641,9.84939638 14.3763848,8.66839042 C12.8772054,7.48747205 11.8735838,2.49674967 11.5900234,1.77986049 C11.3065497,1.06279613 10.2350126,0.109863408 9.93182435,0.0191245934 C9.92366058,0.0165846073 9.91393355,0.014745307 9.90368542,0.0133439353 C9.61183072,-0.02922708 8.44261453,-0.043864986 7.90443919,1.18214216 C7.6806231,1.6920134 7.06339105,2.14754537 6.62654294,2.99563798 C6.12681649,3.96529957 5.79053898,5.28871993 5.97048914,6.77347319 C5.98481914,6.89136358 6.00201515,7.01048017 6.0230325,7.13038503 C5.76022884,7.1772434 4.29648369,6.42032753 3.61298575,6.40254763 C3.57199325,6.4014966 3.5334325,6.4027228 3.49851939,6.40736485 C2.88085263,6.48829406 2.4124785,6.84695762 2.4124785,6.84695762 C2.4124785,6.84695762 1.73957608,8.9072367 1.76919143,9.8142745 C1.79898048,10.7212247 3.58988404,12.6033544 3.50633576,12.762848 C3.35565355,13.0503044 4.23855572,15.1051532 4.04601253,16.4170998 C3.81699295,17.978403 2.61535667,21.6097949 1.67513447,22.2262232 C2.16487334,22.3505949 2.65079087,22.2951532 3.11108809,22.134083 C4.6980713,21.5781764 5.97856605,19.7603346 6.05351633,19.6795806 C5.9638018,19.9454033 5.75362835,20.4154759 5.34153207,21.0144747 C4.53609879,22.1853207 2.05257819,27.3541048 0.156240508,28.3904192 C0.327505812,28.5024413 0.83496178,28.4235266 1.4371695,28.2590406 C2.48881836,27.9716718 3.82975969,27.4224217 4.1776749,27.1670217 C4.30047873,27.076896 4.26903956,27.1708755 4.13407694,27.3809937 C3.66804772,28.1066414 1.40208269,33.4095193 1.01239333,33.7694091 C1.07475058,33.9390626 1.42544494,33.8871243 1.89564289,33.7257914 C3.08294917,33.3184302 5.03295924,32.2131859 5.03295924,32.2131859 C5.03295924,32.2131859 4.95774841,32.3320397 4.82990737,32.5299834 C4.2340396,33.4526991 2.80651029,40.3840584 2.95180788,41.0695919 C3.1785694,40.8853991 3.40897855,40.693674 3.63869292,40.4998468 C5.16522955,39.2101469 6.64695235,37.8191104 6.64695235,37.8191104 C6.64695235,37.8191104 6.60908639,38.0224844 6.55046363,38.3631053 C6.29738701,39.8362097 6.04532534,44.4588969 6.39558547,45.7253865 C6.54955712,44.5437382 7.13478055,42.9677498 8.15125576,40.9974213 C8.15125576,40.9974213 8.20814155,41.3054603 8.3143573,41.7990935 C8.62119316,43.2264781 9.34177542,46.2090349 10.2993673,47.8169337 C10.4971214,48.1491463 10.7048631,48.4241655 10.9213765,48.6130004 C10.8122948,48.375643 10.7234487,48.1339064 10.6505828,47.8907684 C10.5154465,47.4405778 10.4366749,46.985132 10.3995905,46.5415103 C10.2356205,44.575999 10.8728282,42.8439912 10.8728282,42.8439912 C10.8728282,42.8439912 11.0236841,43.0942236 11.2945647,43.5085041 C11.9700725,44.5410523 13.3936937,46.5940617 15.0984435,48.3419225 C16.1300303,49.3997829 17.2644458,50.3459716 18.398514,50.8862003 C17.993713,50.6105681 17.6287754,50.1582754 17.3041356,49.6122659 C16.0206012,47.4529274 15.366458,43.8243383 15.366458,43.8243383 C15.366458,43.8243383 15.6791128,44.1285235 16.218529,44.6132229 C17.0756371,45.3835394 18.5052508,46.6100023 20.1615392,47.7964386 C22.8013871,49.6875897 26.0172145,51.4775792 28.4110206,51.1585044 C28.3519636,51.1206673 28.2926461,51.0812538 28.2332417,51.0407892 C26.0297207,49.5397449 23.5926641,46.2417043 23.7328376,45.7653256 C23.8057904,45.6980597 24.0578248,45.7600704 24.4454298,45.9068641 C24.615045,45.9713272 24.8112358,46.0522564 25.029573,46.1456228 C27.1036028,47.032078 31.2186599,49.0640669 34.3866338,49.1236251 C34.252366,49.0558338 34.1152321,48.9770066 33.9759271,48.8891582 C31.5841185,47.3823333 28.5682164,43.122689 28.5682164,43.122689 C28.5682164,43.122689 29.1055483,43.4636602 29.9523215,43.9529141 C32.1517605,45.2236954 36.4425122,47.495932 38.851951,47.4011642 C38.7635392,47.3340736 38.6753011,47.2645305 38.5873236,47.1932357 C35.9394855,45.0456336 33.5232725,41.081416 33.5232725,41.081416 C33.5232725,41.081416 33.9577758,41.2984534 34.6358022,41.6450302 C36.5457751,42.6218738 40.3909939,44.6295139 41.9182253,45.7253865 C41.6823447,45.3766201 41.4438586,45.0348606 41.2050251,44.7012466 C38.5589241,41.0057419 35.8539397,38.3202759 35.8539397,38.3202759 Z M20.2612966,21.5631556 C22.798995,25.5023688 26.6965849,29.3086266 27.7541157,31.8176511 C29.9439814,37.0131755 18.8036969,28.7929057 17.0423669,30.7722619 C18.892037,28.0747239 27.6820657,35.3682857 26.0516785,31.0493764 C25.1214307,28.5851423 20.8739162,24.2242387 20.2612966,21.5631556 Z M12.132653,11.0230451 C11.3273065,13.975998 11.71578,16.4238439 11.7717973,16.5957747 C11.716388,16.4502072 10.9005329,14.3056706 10.6488458,13.3726199 C10.2390076,11.8528323 11.0906443,10.976975 12.132653,11.0230451 Z M6.17545167,7.50866779 C6.04813172,7.85743416 5.93366536,8.21014189 5.82380197,8.56451375 L5.48952197,9.6264907 C5.37783476,9.9805998 5.26171827,10.3333951 5.13813281,10.6847015 C5.07560187,10.8603109 5.00968383,11.0346065 4.93334397,11.2074131 C4.91354251,11.2505929 4.8933068,11.2935974 4.87046564,11.336602 C4.84614805,11.3796942 4.8251307,11.4223485 4.7809248,11.4675427 L4.76381564,11.4838337 L4.74826975,11.4958329 C4.73793478,11.5038032 4.7279472,11.5119487 4.71544101,11.5187804 C4.6921656,11.5338451 4.66680583,11.5455816 4.64066442,11.5553912 C4.58820791,11.5747476 4.53210376,11.5809662 4.47877876,11.577638 C4.37126028,11.5707187 4.27590059,11.5309548 4.19009424,11.4838337 C4.10420105,11.4359243 4.02673216,11.3780301 3.95395309,11.3162822 C3.80874234,11.191998 3.68168294,11.0515981 3.56513221,10.9039285 C3.33394142,10.6074509 3.13905332,10.2859236 2.97508329,9.94985721 C2.81050532,9.6142287 2.67615064,9.26336027 2.58087781,8.90180638 C2.53441384,8.72076668 2.4983717,8.53701183 2.47605163,8.35159284 C2.45355786,8.16643661 2.44687052,7.97882798 2.46345859,7.79367175 C2.46128738,8.16564834 2.53311111,8.53210703 2.64401669,8.88350097 C2.75309844,9.23585835 2.89865658,9.57586615 3.06835861,9.90186023 C3.24023186,10.2264529 3.43399093,10.5405354 3.66413954,10.8236124 C3.77886645,10.964713 3.90140972,11.100033 4.03810931,11.2151206 C4.10645911,11.2723141 4.17819599,11.3249531 4.25384106,11.3665564 C4.32905189,11.4076341 4.40921309,11.4382015 4.48650828,11.4426684 C4.56328238,11.4492373 4.63527981,11.4224361 4.6891259,11.3711108 L4.69711597,11.3637536 C4.69980827,11.3606005 4.70258743,11.3561337 4.70545343,11.3523675 L4.72247574,11.3288069 C4.73315811,11.3100636 4.74453527,11.2928968 4.75478339,11.2731024 C4.77580074,11.2343019 4.79508111,11.1935745 4.81427464,11.1524968 C4.88769283,10.9898119 4.9516724,10.8201354 5.01538784,10.6507369 C4.96510666,10.5958184 4.82010448,10.5355092 4.76568013,10.435154 C4.70114214,10.3161498 4.66983929,10.267834 4.77410807,10.2081729 C4.88760216,10.1432333 5.07327548,10.0817358 5.23199265,10.0486151 L5.39068834,9.59312054 C5.51218944,9.24251487 5.63508011,8.89217195 5.76205266,8.54314283 C5.82658112,8.36910999 5.89223861,8.19525232 5.95980677,8.0222705 C6.02711438,7.84911352 6.09772223,7.67727032 6.17545167,7.50866779 Z M4.69657241,9.4057217 C4.50401383,9.64529184 4.63379306,9.9551267 4.57066611,10.0589487 C4.53910236,10.1108601 4.47807441,10.0758592 4.42961301,10.0312981 C4.34992871,9.95802706 4.34095151,9.85220998 4.31437472,9.82328442 C4.27827773,9.7839973 4.16673759,9.73760557 4.12487271,9.66040926 C4.0752281,9.56886758 4.05114898,9.53170158 4.13135573,9.48580844 C4.32699796,9.3738648 4.80146681,9.27521821 4.69657241,9.4057217 Z M4.09701276,8.83870265 C4.35160129,8.80491235 4.09193871,9.26554039 4.01755246,9.25095849 C3.92045306,9.23192416 3.72985619,8.89694824 3.75404147,8.7714702 C3.76958634,8.69082032 3.97138272,8.85537691 4.09701276,8.83870265 Z M4.07067911,6.60781193 C4.15098364,6.71612623 3.59321505,7.15856941 3.60735376,8.29291172 C3.29367716,8.42723608 3.08585252,7.58936102 3.08585252,7.58936102 C3.08585252,7.58936102 3.99046333,6.49970244 4.07067911,6.60781193 Z M5.92246128,6.56476984 C6.0064652,6.67019179 5.32670903,6.95956981 5.38009407,8.09272348 C5.07125697,8.23800605 4.83456351,7.40795591 4.83456351,7.40795591 C4.83456351,7.40795591 5.83855313,6.45954946 5.92246128,6.56476984 Z M4.18353596,7.03131381 C4.09370121,7.22732402 4.10116195,7.26763405 4.13309378,7.29301789 C4.16319324,7.31694511 4.24121811,7.15830798 4.29734594,7.16931068 C4.33067598,7.17584434 4.27779433,7.31437046 4.3478705,7.30819561 C4.37503223,7.30580222 4.46644978,7.16763981 4.52417906,7.17895645 C4.55765461,7.18551864 4.49230471,7.34432694 4.55725278,7.34924069 C4.5896758,7.35169371 4.84804244,6.87422362 4.81422274,7.04968694 C4.77218507,7.26778673 4.748978,7.45713583 4.65994059,7.48418473 C4.38451682,7.56785642 4.06553671,7.61245821 3.80817976,7.57806583 C3.6189036,7.55277156 4.3209029,6.73159322 4.18353596,7.03131381 Z M7.82313154,2.88062826 C7.73444313,3.03170726 8.55592995,0.828842298 9.07488726,1.14515165 C9.42943354,1.36125093 9.30178692,1.75705887 9.05352104,1.82315657 C8.6266112,1.93681599 8.12489213,2.3665849 7.82313154,2.88062826 Z" id="path-3"></path>
    </defs>
    <g id="Howl-logo-2026-(mono)" stroke="none" fill="none" transform="translate(0, -4)" fill-rule="evenodd" stroke-width="1">
        <g id="Group" transform="translate(0.99, -8.8083)">
            <path d="M48.761931,28.3875816 L48.9155013,28.5753169 C52.0960014,32.5205104 54,37.5379038 54,43 C54,53.4153561 47.0769703,62.213752 37.581581,65.0445174 C37.8425977,64.1175401 38.0945429,62.8266361 38.2861888,61.5576547 C38.3256901,61.6071614 38.3472438,61.6340128 38.4166832,61.7205204 C38.6250209,61.9792413 38.817259,62.214085 39.0006121,62.4332648 C39.7201575,63.2934074 41.0946505,63.0886349 41.5322247,62.0561041 C41.8149229,61.3890294 41.871108,58.294386 41.7497631,55.7098958 C41.7806184,55.7285132 41.8107714,55.7461592 41.8405801,55.7633256 C42.1670431,55.9513381 42.4564588,56.0862273 42.7459027,56.1661062 C43.4750925,56.3673437 44.2383142,56.2658019 44.73115,55.4514311 C45.0111818,54.9887015 45.0181474,54.416175 44.7609418,53.9513241 C44.7500041,53.921898 44.7352379,53.8791343 44.7178513,53.8255105 C44.6652867,53.6633897 44.598227,53.4318429 44.5184789,53.1371479 C44.3799315,52.6251701 44.2191687,51.9864157 43.9808839,51.0118415 C43.9612839,50.9316531 43.9612839,50.9316531 43.9416789,50.8513566 C43.9345655,50.8222157 43.9275165,50.7933395 43.920927,50.7663559 C44.7100256,51.1159708 45.2406942,51.2081252 45.8811047,50.9469334 C46.9305236,50.5189274 47.1444455,49.1264431 46.2718929,48.403172 C45.8228939,48.0309905 45.1737071,46.778224 44.4844884,44.9357494 C44.4590319,44.8676969 44.4290502,44.78541 44.3939979,44.687173 C44.6202845,44.7192933 44.8508963,44.7281197 45.0848497,44.7148376 C46.3877918,44.6408664 46.9813155,43.0534285 46.046507,42.1427897 C45.7541253,41.8579675 45.2079219,38.6718644 45.2793324,37.1319559 C45.2862322,36.9829268 45.3375392,36.7577088 45.4351855,36.4760285 C45.5153639,36.244738 45.6211091,35.9895591 45.7595283,35.6873293 C45.8390362,35.5137288 46.1469493,34.8713276 46.2107565,34.7304721 C46.2900952,34.5553306 46.3496349,34.4110152 46.396318,34.2713986 C46.5340341,34.1477781 47.0029779,33.7246635 47.1782437,33.559394 C47.3841353,33.3652455 47.566363,33.1840312 47.731792,33.0062698 C48.2627507,32.4357292 48.6033824,31.9387213 48.7380621,31.3497918 C48.8424424,30.8929475 48.8667385,30.3308336 48.8437827,29.6348135 C48.8321556,29.2822805 48.808079,28.9113655 48.7752645,28.5356602 C48.7708128,28.4846907 48.7663567,28.4352795 48.761931,28.3875816 Z M31,20 C33.3051823,20 35.5311579,20.339124 37.6307586,20.9702037 C37.24714,21.7284236 36.5707049,23.0928781 36.2480344,23.6757818 C35.6900824,24.6837212 35.1778022,25.4463943 34.7488563,25.8859312 C34.60836,26.0298965 34.4961618,26.1185008 34.4325965,26.151208 C33.6281304,26.5651786 33.3617825,26.6275296 33.0293533,26.5947132 C32.9669816,26.588556 32.9761276,26.5897006 32.7460328,26.5599396 C32.5531378,26.5349901 32.4177922,26.5200178 32.2583329,26.5083536 C31.086876,26.4227734 29.6992047,27.6651973 27.2685146,30.3010291 C25.6195245,32.0891881 24.1847139,33.8620638 23.5377757,34.9675268 C23.4590098,35.017489 23.3788433,35.0670182 23.2974675,35.1162306 C22.5662044,35.5584656 18.7607299,37.3118249 18.2012253,37.8988952 C18.1764656,37.9251165 18.1764656,37.9251165 18.151722,37.952353 C17.6498985,38.5103198 17.6376338,39.35328 18.1230121,39.9256101 C18.4074822,40.2610409 18.6806125,40.5768275 18.9393829,40.8701052 C18.358587,41.0239374 17.7162181,41.1958308 17.0243808,41.3823277 C15.8383147,41.7020525 14.7454553,42.0001565 13.944079,42.2202908 C13.9216009,42.2264074 13.9216009,42.2264074 13.9146189,42.2283228 C12.7738125,42.5414063 12.4969729,43.901599 13.1827373,44.6702556 C12.9362873,44.7569031 12.6915389,44.8423369 12.4492629,44.9263109 C10.6006508,45.5670494 9.09771464,46.0499287 8.23115585,46.2797988 C8.07907327,45.2077657 8,44.1131171 8,43 C8,30.2974508 18.2974508,20 31,20 Z M45.5569739,25.1900302 L45.6981817,25.3084573 C45.9013863,25.4774664 46.1016328,25.6499102 46.2988323,25.8256996 C46.0587133,25.790597 45.8123511,25.7868551 45.5304766,25.808616 C45.5473503,25.6015619 45.5561105,25.3951853 45.5569739,25.1900302 Z" id="Moon" fill-opacity="0.5" fill="#FFFFFF"></path>
            <g id="Wolf" transform="translate(-0.5323, 13.2495)">
                <mask id="mask-2" fill="white">
                    <use xlink:href="#path-1"></use>
                </mask>
                <g id="mask"></g>
                <g id="Wolf-shape" mask="url(#mask-2)" xlink:href="#path-3" fill="#FFFFFF">
                    <g transform="translate(25.9591, 29.5978) scale(-1, 1) rotate(-11) translate(-25.9591, -29.5978)translate(5, 4)">
                        <path d="M35.8539397,38.3202759 L37.1963575,38.8862549 L41.3110672,40.6205399 L40.4623834,39.8385745 L34.3766462,34.2322996 C34.6373655,34.2297597 34.9052064,34.223979 35.1720051,34.2136439 C35.6728605,34.194375 36.1694605,34.1591656 36.6081324,34.0996949 C36.8917797,34.0611571 37.1514568,34.0128974 37.3716178,33.9519377 C37.3605881,33.9486971 37.3482556,33.9443178 37.3366179,33.9408143 C35.8094733,33.4513853 28.9723227,29.2909756 28.7092585,29.1307813 L29.3787738,28.9916952 L31.7122201,28.5309943 C31.7122201,28.5309943 31.7024931,28.526177 31.6845154,28.5173309 C31.2923075,28.3229782 26.7535164,26.0750904 24.7949952,25.1698919 C25.113295,24.9509276 26.2264326,24.1720277 27.7483663,22.9527468 C27.2616671,22.141703 24.9630471,20.9874107 22.9986201,19.0350372 C22.5361517,17.1336386 18.1166905,9.85543979 17.192709,9.7449066 C16.2687274,9.634461 15.8755641,9.84939638 14.3763848,8.66839042 C12.8772054,7.48747205 11.8735838,2.49674967 11.5900234,1.77986049 C11.3065497,1.06279613 10.2350126,0.109863408 9.93182435,0.0191245934 C9.92366058,0.0165846073 9.91393355,0.014745307 9.90368542,0.0133439353 C9.61183072,-0.02922708 8.44261453,-0.043864986 7.90443919,1.18214216 C7.6806231,1.6920134 7.06339105,2.14754537 6.62654294,2.99563798 C6.12681649,3.96529957 5.79053898,5.28871993 5.97048914,6.77347319 C5.98481914,6.89136358 6.00201515,7.01048017 6.0230325,7.13038503 C5.76022884,7.1772434 4.29648369,6.42032753 3.61298575,6.40254763 C3.57199325,6.4014966 3.5334325,6.4027228 3.49851939,6.40736485 C2.88085263,6.48829406 2.4124785,6.84695762 2.4124785,6.84695762 C2.4124785,6.84695762 1.73957608,8.9072367 1.76919143,9.8142745 C1.79898048,10.7212247 3.58988404,12.6033544 3.50633576,12.762848 C3.35565355,13.0503044 4.23855572,15.1051532 4.04601253,16.4170998 C3.81699295,17.978403 2.61535667,21.6097949 1.67513447,22.2262232 C2.16487334,22.3505949 2.65079087,22.2951532 3.11108809,22.134083 C4.6980713,21.5781764 5.97856605,19.7603346 6.05351633,19.6795806 C5.9638018,19.9454033 5.75362835,20.4154759 5.34153207,21.0144747 C4.53609879,22.1853207 2.05257819,27.3541048 0.156240508,28.3904192 C0.327505812,28.5024413 0.83496178,28.4235266 1.4371695,28.2590406 C2.48881836,27.9716718 3.82975969,27.4224217 4.1776749,27.1670217 C4.30047873,27.076896 4.26903956,27.1708755 4.13407694,27.3809937 C3.66804772,28.1066414 1.40208269,33.4095193 1.01239333,33.7694091 C1.07475058,33.9390626 1.42544494,33.8871243 1.89564289,33.7257914 C3.08294917,33.3184302 5.03295924,32.2131859 5.03295924,32.2131859 C5.03295924,32.2131859 4.95774841,32.3320397 4.82990737,32.5299834 C4.2340396,33.4526991 2.80651029,40.3840584 2.95180788,41.0695919 C3.1785694,40.8853991 3.40897855,40.693674 3.63869292,40.4998468 C5.16522955,39.2101469 6.64695235,37.8191104 6.64695235,37.8191104 C6.64695235,37.8191104 6.60908639,38.0224844 6.55046363,38.3631053 C6.29738701,39.8362097 6.04532534,44.4588969 6.39558547,45.7253865 C6.54955712,44.5437382 7.13478055,42.9677498 8.15125576,40.9974213 C8.15125576,40.9974213 8.20814155,41.3054603 8.3143573,41.7990935 C8.62119316,43.2264781 9.34177542,46.2090349 10.2993673,47.8169337 C10.4971214,48.1491463 10.7048631,48.4241655 10.9213765,48.6130004 C10.8122948,48.375643 10.7234487,48.1339064 10.6505828,47.8907684 C10.5154465,47.4405778 10.4366749,46.985132 10.3995905,46.5415103 C10.2356205,44.575999 10.8728282,42.8439912 10.8728282,42.8439912 C10.8728282,42.8439912 11.0236841,43.0942236 11.2945647,43.5085041 C11.9700725,44.5410523 13.3936937,46.5940617 15.0984435,48.3419225 C16.1300303,49.3997829 17.2644458,50.3459716 18.398514,50.8862003 C17.993713,50.6105681 17.6287754,50.1582754 17.3041356,49.6122659 C16.0206012,47.4529274 15.366458,43.8243383 15.366458,43.8243383 C15.366458,43.8243383 15.6791128,44.1285235 16.218529,44.6132229 C17.0756371,45.3835394 18.5052508,46.6100023 20.1615392,47.7964386 C22.8013871,49.6875897 26.0172145,51.4775792 28.4110206,51.1585044 C28.3519636,51.1206673 28.2926461,51.0812538 28.2332417,51.0407892 C26.0297207,49.5397449 23.5926641,46.2417043 23.7328376,45.7653256 C23.8057904,45.6980597 24.0578248,45.7600704 24.4454298,45.9068641 C24.615045,45.9713272 24.8112358,46.0522564 25.029573,46.1456228 C27.1036028,47.032078 31.2186599,49.0640669 34.3866338,49.1236251 C34.252366,49.0558338 34.1152321,48.9770066 33.9759271,48.8891582 C31.5841185,47.3823333 28.5682164,43.122689 28.5682164,43.122689 C28.5682164,43.122689 29.1055483,43.4636602 29.9523215,43.9529141 C32.1517605,45.2236954 36.4425122,47.495932 38.851951,47.4011642 C38.7635392,47.3340736 38.6753011,47.2645305 38.5873236,47.1932357 C35.9394855,45.0456336 33.5232725,41.081416 33.5232725,41.081416 C33.5232725,41.081416 33.9577758,41.2984534 34.6358022,41.6450302 C36.5457751,42.6218738 40.3909939,44.6295139 41.9182253,45.7253865 C41.6823447,45.3766201 41.4438586,45.0348606 41.2050251,44.7012466 C38.5589241,41.0057419 35.8539397,38.3202759 35.8539397,38.3202759 Z M20.2612966,21.5631556 C22.798995,25.5023688 26.6965849,29.3086266 27.7541157,31.8176511 C29.9439814,37.0131755 18.8036969,28.7929057 17.0423669,30.7722619 C18.892037,28.0747239 27.6820657,35.3682857 26.0516785,31.0493764 C25.1214307,28.5851423 20.8739162,24.2242387 20.2612966,21.5631556 Z M12.132653,11.0230451 C11.3273065,13.975998 11.71578,16.4238439 11.7717973,16.5957747 C11.716388,16.4502072 10.9005329,14.3056706 10.6488458,13.3726199 C10.2390076,11.8528323 11.0906443,10.976975 12.132653,11.0230451 Z M6.17545167,7.50866779 C6.04813172,7.85743416 5.93366536,8.21014189 5.82380197,8.56451375 L5.48952197,9.6264907 C5.37783476,9.9805998 5.26171827,10.3333951 5.13813281,10.6847015 C5.07560187,10.8603109 5.00968383,11.0346065 4.93334397,11.2074131 C4.91354251,11.2505929 4.8933068,11.2935974 4.87046564,11.336602 C4.84614805,11.3796942 4.8251307,11.4223485 4.7809248,11.4675427 L4.76381564,11.4838337 L4.74826975,11.4958329 C4.73793478,11.5038032 4.7279472,11.5119487 4.71544101,11.5187804 C4.6921656,11.5338451 4.66680583,11.5455816 4.64066442,11.5553912 C4.58820791,11.5747476 4.53210376,11.5809662 4.47877876,11.577638 C4.37126028,11.5707187 4.27590059,11.5309548 4.19009424,11.4838337 C4.10420105,11.4359243 4.02673216,11.3780301 3.95395309,11.3162822 C3.80874234,11.191998 3.68168294,11.0515981 3.56513221,10.9039285 C3.33394142,10.6074509 3.13905332,10.2859236 2.97508329,9.94985721 C2.81050532,9.6142287 2.67615064,9.26336027 2.58087781,8.90180638 C2.53441384,8.72076668 2.4983717,8.53701183 2.47605163,8.35159284 C2.45355786,8.16643661 2.44687052,7.97882798 2.46345859,7.79367175 C2.46128738,8.16564834 2.53311111,8.53210703 2.64401669,8.88350097 C2.75309844,9.23585835 2.89865658,9.57586615 3.06835861,9.90186023 C3.24023186,10.2264529 3.43399093,10.5405354 3.66413954,10.8236124 C3.77886645,10.964713 3.90140972,11.100033 4.03810931,11.2151206 C4.10645911,11.2723141 4.17819599,11.3249531 4.25384106,11.3665564 C4.32905189,11.4076341 4.40921309,11.4382015 4.48650828,11.4426684 C4.56328238,11.4492373 4.63527981,11.4224361 4.6891259,11.3711108 L4.69711597,11.3637536 C4.69980827,11.3606005 4.70258743,11.3561337 4.70545343,11.3523675 L4.72247574,11.3288069 C4.73315811,11.3100636 4.74453527,11.2928968 4.75478339,11.2731024 C4.77580074,11.2343019 4.79508111,11.1935745 4.81427464,11.1524968 C4.88769283,10.9898119 4.9516724,10.8201354 5.01538784,10.6507369 C4.96510666,10.5958184 4.82010448,10.5355092 4.76568013,10.435154 C4.70114214,10.3161498 4.66983929,10.267834 4.77410807,10.2081729 C4.88760216,10.1432333 5.07327548,10.0817358 5.23199265,10.0486151 L5.39068834,9.59312054 C5.51218944,9.24251487 5.63508011,8.89217195 5.76205266,8.54314283 C5.82658112,8.36910999 5.89223861,8.19525232 5.95980677,8.0222705 C6.02711438,7.84911352 6.09772223,7.67727032 6.17545167,7.50866779 Z M4.69657241,9.4057217 C4.50401383,9.64529184 4.63379306,9.9551267 4.57066611,10.0589487 C4.53910236,10.1108601 4.47807441,10.0758592 4.42961301,10.0312981 C4.34992871,9.95802706 4.34095151,9.85220998 4.31437472,9.82328442 C4.27827773,9.7839973 4.16673759,9.73760557 4.12487271,9.66040926 C4.0752281,9.56886758 4.05114898,9.53170158 4.13135573,9.48580844 C4.32699796,9.3738648 4.80146681,9.27521821 4.69657241,9.4057217 Z M4.09701276,8.83870265 C4.35160129,8.80491235 4.09193871,9.26554039 4.01755246,9.25095849 C3.92045306,9.23192416 3.72985619,8.89694824 3.75404147,8.7714702 C3.76958634,8.69082032 3.97138272,8.85537691 4.09701276,8.83870265 Z M4.07067911,6.60781193 C4.15098364,6.71612623 3.59321505,7.15856941 3.60735376,8.29291172 C3.29367716,8.42723608 3.08585252,7.58936102 3.08585252,7.58936102 C3.08585252,7.58936102 3.99046333,6.49970244 4.07067911,6.60781193 Z M5.92246128,6.56476984 C6.0064652,6.67019179 5.32670903,6.95956981 5.38009407,8.09272348 C5.07125697,8.23800605 4.83456351,7.40795591 4.83456351,7.40795591 C4.83456351,7.40795591 5.83855313,6.45954946 5.92246128,6.56476984 Z M4.18353596,7.03131381 C4.09370121,7.22732402 4.10116195,7.26763405 4.13309378,7.29301789 C4.16319324,7.31694511 4.24121811,7.15830798 4.29734594,7.16931068 C4.33067598,7.17584434 4.27779433,7.31437046 4.3478705,7.30819561 C4.37503223,7.30580222 4.46644978,7.16763981 4.52417906,7.17895645 C4.55765461,7.18551864 4.49230471,7.34432694 4.55725278,7.34924069 C4.5896758,7.35169371 4.84804244,6.87422362 4.81422274,7.04968694 C4.77218507,7.26778673 4.748978,7.45713583 4.65994059,7.48418473 C4.38451682,7.56785642 4.06553671,7.61245821 3.80817976,7.57806583 C3.6189036,7.55277156 4.3209029,6.73159322 4.18353596,7.03131381 Z M7.82313154,2.88062826 C7.73444313,3.03170726 8.55592995,0.828842298 9.07488726,1.14515165 C9.42943354,1.36125093 9.30178692,1.75705887 9.05352104,1.82315657 C8.6266112,1.93681599 8.12489213,2.3665849 7.82313154,2.88062826 Z"></path>
                    </g>
                </g>
            </g>
        </g>
    </g>
</svg>